<svg xmlns="http://www.w3.org/2000/svg" version="1.1" xmlns:xlink="http://www.w3.org/1999/xlink" xmlns:svgjs="http://svgjs.dev/svgjs" width="1000" height="1000"><g clip-path="url(#SvgjsClipPath1024)"><rect width="1000" height="1000" fill="#395c6b"></rect><g transform="matrix(0.3645833333333333,0,0,0.3645833333333333,150,150)"><svg xmlns="http://www.w3.org/2000/svg" version="1.1" xmlns:xlink="http://www.w3.org/1999/xlink" xmlns:svgjs="http://svgjs.dev/svgjs" width="1920" height="1920"><svg xmlns="http://www.w3.org/2000/svg" xmlns:xlink="http://www.w3.org/1999/xlink" width="1920" zoomAndPan="magnify" viewBox="0 0 1440 1439.999935" height="1920" preserveAspectRatio="xMidYMid meet" version="1.0"><defs><g></g><clipPath id="SvgjsClipPath1024"><rect width="1000" height="1000" x="0" y="0" rx="500" ry="500"></rect></clipPath></defs><g fill="#f3f1e9" fill-opacity="1"><g transform="translate(841.037239, 1118.091938)"><g><path d="M 242.234375 -539.46875 L 242.234375 -502.453125 L 382.921875 -502.453125 L 382.921875 -447.453125 L 242.234375 -447.453125 L 243.296875 -95.203125 C 243.296875 -81.804688 246.46875 -71.582031 252.8125 -64.53125 C 259.15625 -57.476562 266.910156 -52.1875 276.078125 -48.65625 C 284.546875 -45.832031 295.476562 -43.363281 308.875 -41.25 C 321.570312 -38.425781 333.207031 -36.664062 343.78125 -35.96875 L 343.78125 1.0625 L 1.0625 1.0625 L 1.0625 -35.96875 C 10.226562 -36.664062 18.6875 -37.367188 26.4375 -38.078125 C 34.90625 -38.785156 42.3125 -40.550781 48.65625 -43.375 C 59.9375 -47.601562 67.34375 -53.242188 70.875 -60.296875 C 75.101562 -68.054688 77.21875 -78.28125 77.21875 -90.96875 L 77.21875 -499.28125 C 77.21875 -535.945312 82.507812 -571.207031 93.09375 -605.0625 C 103.664062 -638.90625 119.882812 -669.226562 141.75 -696.03125 C 162.90625 -722.125 190.757812 -743.28125 225.3125 -759.5 C 259.15625 -775.007812 299 -783.117188 344.84375 -783.828125 L 343.78125 -776.421875 C 328.269531 -768.660156 314.867188 -760.722656 303.578125 -752.609375 C 292.296875 -744.503906 284.191406 -737.984375 279.265625 -733.046875 C 278.554688 -733.046875 278.023438 -732.867188 277.671875 -732.515625 C 277.316406 -732.171875 277.140625 -731.644531 277.140625 -730.9375 C 275.023438 -729.53125 273.613281 -728.296875 272.90625 -727.234375 C 272.207031 -726.179688 271.859375 -725.65625 271.859375 -725.65625 C 265.503906 -717.1875 259.859375 -706.609375 254.921875 -693.921875 C 246.460938 -669.941406 242.234375 -618.457031 242.234375 -539.46875 Z M 407.25 -589.1875 C 383.269531 -589.1875 362.992188 -597.648438 346.421875 -614.578125 C 329.847656 -631.503906 321.5625 -651.957031 321.5625 -675.9375 C 321.5625 -699.207031 329.847656 -719.300781 346.421875 -736.21875 C 362.992188 -753.144531 383.269531 -761.609375 407.25 -761.609375 C 431.226562 -761.609375 451.675781 -753.144531 468.59375 -736.21875 C 485.519531 -719.300781 493.984375 -699.207031 493.984375 -675.9375 C 493.984375 -651.957031 485.519531 -631.503906 468.59375 -614.578125 C 451.675781 -597.648438 431.226562 -589.1875 407.25 -589.1875 Z M 407.25 -589.1875 "></path></g></g></g><g fill="#f3f1e9" fill-opacity="1"><g transform="translate(216.57615, 1116.914674)"><g><path d="M 279.109375 -49.6875 C 285.453125 -47.570312 292.851562 -45.457031 301.3125 -43.34375 C 309.0625 -41.226562 317.164062 -39.820312 325.625 -39.125 L 325.625 -2.109375 L 10.578125 -2.109375 L 10.578125 -39.125 C 19.035156 -39.820312 27.492188 -40.523438 35.953125 -41.234375 C 44.398438 -42.640625 51.796875 -44.398438 58.140625 -46.515625 C 69.421875 -50.035156 76.820312 -55.675781 80.34375 -63.4375 C 84.570312 -71.1875 86.6875 -81.40625 86.6875 -94.09375 L 86.6875 -659.71875 C 86.6875 -670.988281 84.222656 -682.617188 79.296875 -694.609375 C 74.359375 -706.585938 66.957031 -715.394531 57.09375 -721.03125 C 50.75 -725.257812 41.234375 -728.785156 28.546875 -731.609375 C 15.859375 -734.421875 4.226562 -736.179688 -6.34375 -736.890625 L -6.34375 -773.890625 L 246.328125 -786.578125 L 253.734375 -779.1875 L 253.734375 -97.265625 C 253.734375 -85.285156 255.492188 -75.414062 259.015625 -67.65625 C 262.546875 -59.90625 269.242188 -53.914062 279.109375 -49.6875 Z M 625.875 -48.625 C 641.382812 -43.695312 656.894531 -40.53125 672.40625 -39.125 L 672.40625 -2.109375 L 433.46875 -2.109375 C 403.863281 -53.566406 376.726562 -97.269531 352.0625 -133.21875 C 328.09375 -169.15625 305.1875 -202.28125 283.34375 -232.59375 L 283.34375 -277 L 287.5625 -286.515625 C 295.320312 -293.554688 303.429688 -300.953125 311.890625 -308.703125 C 320.347656 -316.460938 329.15625 -324.570312 338.3125 -333.03125 C 353.820312 -347.832031 367.921875 -361.398438 380.609375 -373.734375 C 393.296875 -386.066406 404.21875 -397.164062 413.375 -407.03125 C 424.65625 -418.3125 430.648438 -427.125 431.359375 -433.46875 C 432.765625 -439.101562 433.46875 -442.625 433.46875 -444.03125 C 433.46875 -450.375 428.179688 -455.660156 417.609375 -459.890625 C 407.035156 -463.421875 390.820312 -466.945312 368.96875 -470.46875 L 368.96875 -506.421875 L 626.9375 -506.421875 L 626.9375 -471.53125 C 593.101562 -461.65625 567.378906 -452.488281 549.765625 -444.03125 C 540.597656 -439.800781 531.082031 -435.21875 521.21875 -430.28125 C 511.351562 -425.351562 501.484375 -419.015625 491.609375 -411.265625 C 486.679688 -407.035156 479.8125 -400.691406 471 -392.234375 C 462.1875 -383.773438 453.375 -374.960938 444.5625 -365.796875 C 435.757812 -356.640625 428.535156 -349.066406 422.890625 -343.078125 C 417.253906 -337.085938 414.4375 -334.09375 414.4375 -334.09375 C 430.644531 -310.125 445.269531 -288.625 458.3125 -269.59375 C 471.351562 -250.5625 484.566406 -230.828125 497.953125 -210.390625 C 526.148438 -170.210938 555.753906 -127.21875 586.765625 -81.40625 C 597.335938 -65.195312 610.375 -54.269531 625.875 -48.625 Z M 625.875 -48.625 "></path></g></g></g><path stroke-linecap="round" transform="matrix(0.75, 0.000000000000001005, -0.000000000000001005, 0.75, 66.945355, 152.845498)" fill="none" stroke-linejoin="miter" d="M 15.499944 15.497671 L 493.630194 15.497671 " stroke="#f3f1e9" stroke-width="31" stroke-opacity="1" stroke-miterlimit="4"></path><path stroke-linecap="round" transform="matrix(0, 0.75, -0.75, 0, 90.192526, 158.47331)" fill="none" stroke-linejoin="miter" d="M 15.499129 15.501495 L 501.634588 15.501495 " stroke="#f3f1e9" stroke-width="31" stroke-opacity="1" stroke-miterlimit="4"></path><path stroke-linecap="round" transform="matrix(-0.75, -0.000000001309, 0.000000001309, -0.75, 1373.048937, 1280.587957)" fill="none" stroke-linejoin="miter" d="M 15.497543 15.497485 L 493.633001 15.497485 " stroke="#f3f1e9" stroke-width="31" stroke-opacity="1" stroke-miterlimit="4"></path><path stroke-linecap="round" transform="matrix(0, -0.75, 0.75, 0, 1349.957483, 1277.361325)" fill="none" stroke-linejoin="miter" d="M 15.502602 15.499399 L 504.830769 15.499399 " stroke="#f3f1e9" stroke-width="31" stroke-opacity="1" stroke-miterlimit="4"></path></svg></svg></g></g></svg>